<?xml version="1.0" encoding="UTF-8" standalone="no"?>
<!DOCTYPE svg PUBLIC "-//W3C//DTD SVG 1.1//EN"
 "http://www.w3.org/Graphics/SVG/1.1/DTD/svg11.dtd">
<!-- Generated by graphviz version 13.1.0 (20250701.0955)
 -->
<!-- Title: Dependencies Pages: 1 -->
<svg width="891pt" height="398pt"
 viewBox="0.00 0.00 891.00 398.00" xmlns="http://www.w3.org/2000/svg" xmlns:xlink="http://www.w3.org/1999/xlink">
<g id="graph0" class="graph" transform="scale(1 1) rotate(0) translate(4 394)">
<title>Dependencies</title>
<polygon fill="white" stroke="none" points="-4,4 -4,-394 887.25,-394 887.25,4 -4,4"/>
<!-- callbacks_split -->
<g id="node1" class="node">
<title>callbacks_split</title>
<polygon fill="lightblue" stroke="black" points="320.75,-282 224.5,-282 224.5,-246 320.75,-246 320.75,-282"/>
<text xml:space="preserve" text-anchor="middle" x="272.62" y="-258.95" font-family="Times New Roman,serif" font-size="14.00">callbacks_split</text>
</g>
<!-- config -->
<g id="node2" class="node">
<title>config</title>
<polygon fill="lightblue" stroke="black" points="481.75,-382 427.75,-382 427.75,-346 481.75,-346 481.75,-382"/>
<text xml:space="preserve" text-anchor="middle" x="454.75" y="-358.95" font-family="Times New Roman,serif" font-size="14.00">config</text>
</g>
<!-- callbacks_split&#45;&gt;config -->
<g id="edge6" class="edge">
<title>callbacks_split&#45;&gt;config</title>
<path fill="none" stroke="black" d="M294.89,-282.24C314.55,-298.38 345.13,-321.68 374.75,-337 387.83,-343.76 402.96,-349.41 416.46,-353.76"/>
<polygon fill="black" stroke="black" points="415.31,-357.07 425.89,-356.66 417.36,-350.38 415.31,-357.07"/>
</g>
<!-- polyline_utils -->
<g id="node3" class="node">
<title>polyline_utils</title>
<polygon fill="lightblue" stroke="black" points="499.88,-328 409.62,-328 409.62,-292 499.88,-292 499.88,-328"/>
<text xml:space="preserve" text-anchor="middle" x="454.75" y="-304.95" font-family="Times New Roman,serif" font-size="14.00">polyline_utils</text>
</g>
<!-- callbacks_split&#45;&gt;polyline_utils -->
<g id="edge11" class="edge">
<title>callbacks_split&#45;&gt;polyline_utils</title>
<path fill="none" stroke="black" d="M320.95,-276.09C344.63,-282.13 373.45,-289.49 398.18,-295.81"/>
<polygon fill="black" stroke="black" points="397.2,-299.17 407.75,-298.25 398.93,-292.39 397.2,-299.17"/>
</g>
<!-- section_plot_professional -->
<g id="node4" class="node">
<title>section_plot_professional</title>
<polygon fill="lightblue" stroke="black" points="725.5,-166 570.75,-166 570.75,-130 725.5,-130 725.5,-166"/>
<text xml:space="preserve" text-anchor="middle" x="648.12" y="-142.95" font-family="Times New Roman,serif" font-size="14.00">section_plot_professional</text>
</g>
<!-- callbacks_split&#45;&gt;section_plot_professional -->
<g id="edge9" class="edge">
<title>callbacks_split&#45;&gt;section_plot_professional</title>
<path fill="none" stroke="black" d="M320.93,-269.23C374.86,-273.27 464.61,-274.03 534.75,-245 571.33,-229.86 604.47,-197.97 625.13,-174.87"/>
<polygon fill="black" stroke="black" points="627.76,-177.19 631.68,-167.34 622.48,-172.59 627.76,-177.19"/>
</g>
<!-- borehole_log_professional -->
<g id="node5" class="node">
<title>borehole_log_professional</title>
<polygon fill="lightblue" stroke="black" points="534.75,-128 374.75,-128 374.75,-92 534.75,-92 534.75,-128"/>
<text xml:space="preserve" text-anchor="middle" x="454.75" y="-104.95" font-family="Times New Roman,serif" font-size="14.00">borehole_log_professional</text>
</g>
<!-- callbacks_split&#45;&gt;borehole_log_professional -->
<g id="edge10" class="edge">
<title>callbacks_split&#45;&gt;borehole_log_professional</title>
<path fill="none" stroke="black" d="M321.11,-249.93C327.62,-246.48 333.77,-242.23 338.75,-237 371.35,-202.82 341.08,-170.13 374.75,-137 375.37,-136.39 376,-135.79 376.65,-135.21"/>
<polygon fill="black" stroke="black" points="378.65,-138.09 384.53,-129.28 374.44,-132.5 378.65,-138.09"/>
</g>
<!-- data_loader -->
<g id="node6" class="node">
<title>data_loader</title>
<polygon fill="lightblue" stroke="black" points="494.25,-236 415.25,-236 415.25,-200 494.25,-200 494.25,-236"/>
<text xml:space="preserve" text-anchor="middle" x="454.75" y="-212.95" font-family="Times New Roman,serif" font-size="14.00">data_loader</text>
</g>
<!-- callbacks_split&#45;&gt;data_loader -->
<g id="edge7" class="edge">
<title>callbacks_split&#45;&gt;data_loader</title>
<path fill="none" stroke="black" d="M320.95,-251.91C346.46,-245.4 377.94,-237.36 403.84,-230.75"/>
<polygon fill="black" stroke="black" points="404.64,-234.15 413.47,-228.29 402.91,-227.37 404.64,-234.15"/>
</g>
<!-- map_utils -->
<g id="node10" class="node">
<title>map_utils</title>
<polygon fill="lightblue" stroke="black" points="489.75,-182 419.75,-182 419.75,-146 489.75,-146 489.75,-182"/>
<text xml:space="preserve" text-anchor="middle" x="454.75" y="-158.95" font-family="Times New Roman,serif" font-size="14.00">map_utils</text>
</g>
<!-- callbacks_split&#45;&gt;map_utils -->
<g id="edge8" class="edge">
<title>callbacks_split&#45;&gt;map_utils</title>
<path fill="none" stroke="black" d="M321.11,-247.74C327.33,-244.64 333.39,-241.07 338.75,-237 359.42,-221.29 353.59,-206.04 374.75,-191 384.78,-183.87 396.84,-178.5 408.48,-174.51"/>
<polygon fill="black" stroke="black" points="409.49,-177.86 418,-171.54 407.41,-171.18 409.49,-177.86"/>
</g>
<!-- geology_code_utils -->
<g id="node9" class="node">
<title>geology_code_utils</title>
<polygon fill="lightblue" stroke="black" points="883.25,-101 761.5,-101 761.5,-65 883.25,-65 883.25,-101"/>
<text xml:space="preserve" text-anchor="middle" x="822.38" y="-77.95" font-family="Times New Roman,serif" font-size="14.00">geology_code_utils</text>
</g>
<!-- section_plot_professional&#45;&gt;geology_code_utils -->
<g id="edge13" class="edge">
<title>section_plot_professional&#45;&gt;geology_code_utils</title>
<path fill="none" stroke="black" d="M698.02,-129.55C717.84,-122.07 740.92,-113.36 761.72,-105.51"/>
<polygon fill="black" stroke="black" points="762.82,-108.84 770.94,-102.03 760.35,-102.29 762.82,-108.84"/>
</g>
<!-- borehole_log_professional&#45;&gt;section_plot_professional -->
<g id="edge5" class="edge">
<title>borehole_log_professional&#45;&gt;section_plot_professional</title>
<path fill="none" stroke="black" d="M535.25,-125.79C543.14,-127.35 551.17,-128.95 559.14,-130.53"/>
<polygon fill="black" stroke="black" points="558.36,-133.94 568.85,-132.46 559.72,-127.08 558.36,-133.94"/>
</g>
<!-- borehole_log_professional&#45;&gt;geology_code_utils -->
<g id="edge4" class="edge">
<title>borehole_log_professional&#45;&gt;geology_code_utils</title>
<path fill="none" stroke="black" d="M535.09,-104.14C599.05,-99.42 688.21,-92.83 749.96,-88.27"/>
<polygon fill="black" stroke="black" points="749.94,-91.79 759.65,-87.56 749.42,-84.8 749.94,-91.79"/>
</g>
<!-- debug_module -->
<g id="node7" class="node">
<title>debug_module</title>
<polygon fill="lightblue" stroke="black" points="696.62,-36 599.62,-36 599.62,0 696.62,0 696.62,-36"/>
<text xml:space="preserve" text-anchor="middle" x="648.12" y="-12.95" font-family="Times New Roman,serif" font-size="14.00">debug_module</text>
</g>
<!-- debug_module&#45;&gt;geology_code_utils -->
<g id="edge12" class="edge">
<title>debug_module&#45;&gt;geology_code_utils</title>
<path fill="none" stroke="black" d="M697.11,-36.11C717.2,-43.69 740.77,-52.58 761.95,-60.58"/>
<polygon fill="black" stroke="black" points="760.45,-63.75 771.04,-64 762.92,-57.2 760.45,-63.75"/>
</g>
<!-- test_legend_mapping -->
<g id="node8" class="node">
<title>test_legend_mapping</title>
<polygon fill="lightblue" stroke="black" points="338.75,-82 206.5,-82 206.5,-46 338.75,-46 338.75,-82"/>
<text xml:space="preserve" text-anchor="middle" x="272.62" y="-58.95" font-family="Times New Roman,serif" font-size="14.00">test_legend_mapping</text>
</g>
<!-- test_legend_mapping&#45;&gt;borehole_log_professional -->
<g id="edge15" class="edge">
<title>test_legend_mapping&#45;&gt;borehole_log_professional</title>
<path fill="none" stroke="black" d="M339.16,-80.74C349.39,-83.35 360.08,-86.08 370.63,-88.77"/>
<polygon fill="black" stroke="black" points="369.54,-92.11 380.1,-91.19 371.27,-85.33 369.54,-92.11"/>
</g>
<!-- test_legend_mapping&#45;&gt;geology_code_utils -->
<g id="edge16" class="edge">
<title>test_legend_mapping&#45;&gt;geology_code_utils</title>
<path fill="none" stroke="black" d="M339.15,-66.27C442.58,-69.86 642.89,-76.81 749.9,-80.52"/>
<polygon fill="black" stroke="black" points="749.59,-84.01 759.71,-80.86 749.83,-77.02 749.59,-84.01"/>
</g>
<!-- test_ags_integration -->
<g id="node11" class="node">
<title>test_ags_integration</title>
<polygon fill="lightblue" stroke="black" points="335,-136 210.25,-136 210.25,-100 335,-100 335,-136"/>
<text xml:space="preserve" text-anchor="middle" x="272.62" y="-112.95" font-family="Times New Roman,serif" font-size="14.00">test_ags_integration</text>
</g>
<!-- test_ags_integration&#45;&gt;borehole_log_professional -->
<g id="edge14" class="edge">
<title>test_ags_integration&#45;&gt;borehole_log_professional</title>
<path fill="none" stroke="black" d="M335.36,-115.26C344.27,-114.86 353.58,-114.45 362.91,-114.03"/>
<polygon fill="black" stroke="black" points="362.92,-117.54 372.76,-113.6 362.61,-110.54 362.92,-117.54"/>
</g>
<!-- utils -->
<g id="node12" class="node">
<title>utils</title>
<polygon fill="lightblue" stroke="black" points="112.25,-336 58.25,-336 58.25,-300 112.25,-300 112.25,-336"/>
<text xml:space="preserve" text-anchor="middle" x="85.25" y="-312.95" font-family="Times New Roman,serif" font-size="14.00">utils</text>
</g>
<!-- app_factory -->
<g id="node13" class="node">
<title>app_factory</title>
<polygon fill="lightblue" stroke="black" points="312.88,-228 232.38,-228 232.38,-192 312.88,-192 312.88,-228"/>
<text xml:space="preserve" text-anchor="middle" x="272.62" y="-204.95" font-family="Times New Roman,serif" font-size="14.00">app_factory</text>
</g>
<!-- generate_dependency_graph -->
<g id="node14" class="node">
<title>generate_dependency_graph</title>
<polygon fill="lightblue" stroke="black" points="170.5,-390 0,-390 0,-354 170.5,-354 170.5,-390"/>
<text xml:space="preserve" text-anchor="middle" x="85.25" y="-366.95" font-family="Times New Roman,serif" font-size="14.00">generate_dependency_graph</text>
</g>
<!-- app -->
<g id="node15" class="node">
<title>app</title>
<polygon fill="lightblue" stroke="black" points="112.25,-282 58.25,-282 58.25,-246 112.25,-246 112.25,-282"/>
<text xml:space="preserve" text-anchor="middle" x="85.25" y="-258.95" font-family="Times New Roman,serif" font-size="14.00">app</text>
</g>
<!-- app&#45;&gt;callbacks_split -->
<g id="edge2" class="edge">
<title>app&#45;&gt;callbacks_split</title>
<path fill="none" stroke="black" d="M112.42,-264C138.42,-264 179.19,-264 212.96,-264"/>
<polygon fill="black" stroke="black" points="212.6,-267.5 222.6,-264 212.6,-260.5 212.6,-267.5"/>
</g>
<!-- app&#45;&gt;config -->
<g id="edge1" class="edge">
<title>app&#45;&gt;config</title>
<path fill="none" stroke="black" d="M112.68,-271.19C177.18,-288.74 342.75,-333.8 416.89,-353.97"/>
<polygon fill="black" stroke="black" points="415.53,-357.23 426.1,-356.48 417.37,-350.47 415.53,-357.23"/>
</g>
<!-- app&#45;&gt;app_factory -->
<g id="edge3" class="edge">
<title>app&#45;&gt;app_factory</title>
<path fill="none" stroke="black" d="M112.42,-256.38C140.51,-248.19 185.85,-234.99 220.97,-224.76"/>
<polygon fill="black" stroke="black" points="221.9,-228.13 230.53,-221.97 219.95,-221.41 221.9,-228.13"/>
</g>
</g>
</svg>
